<svg id="visual" viewBox="0 0 900 600" width="900" height="600" xmlns="http://www.w3.org/2000/svg" xmlns:xlink="http://www.w3.org/1999/xlink" version="1.1"><g transform="translate(491.6908356635225 279.48107692221095)"><path d="M83.1 -145.5C113.6 -126.4 148.2 -115.9 165.7 -93.1C183.2 -70.3 183.6 -35.2 180.3 -1.9C176.9 31.3 169.9 62.7 153 86.6C136.2 110.6 109.6 127.2 82.5 156.5C55.3 185.8 27.7 227.9 -4.2 235.1C-36 242.4 -72 214.7 -93.7 182.2C-115.3 149.7 -122.6 112.4 -151.6 81.2C-180.6 50 -231.3 25 -253 -12.5C-274.6 -50 -267.2 -100 -235 -125.5C-202.7 -151.1 -145.6 -152.2 -102.3 -163.9C-59 -175.5 -29.5 -197.8 -1.6 -195C26.3 -192.3 52.7 -164.6 83.1 -145.5" fill="#ffa500"></path></g></svg>